<svg xmlns="http://www.w3.org/2000/svg" width="16" height="16" viewBox="0 0 16 16" fill="none">
    <circle cx="8" cy="8" r="8" fill="#FF5252"/>
    <path d="M10.7868 9.75242L9.04224 7.99992L10.7868 6.2471C10.9259 6.1074 11.0019 5.92229 11 5.72652C10.9981 5.53044 10.919 5.3472 10.7773 5.2097C10.4847 4.92654 10.0127 4.93061 9.7252 5.21909L8 6.95217L6.27512 5.21941C5.98763 4.93092 5.51559 4.92654 5.22271 5.21001C5.08104 5.3472 5.00194 5.53075 5.00004 5.72652C4.99813 5.9226 5.07405 6.1074 5.21318 6.2471L6.95745 7.99992L5.21318 9.75242C5.07405 9.89212 4.99813 10.0772 5.00004 10.2733C5.00194 10.4694 5.08104 10.6529 5.22271 10.7901C5.36248 10.9255 5.54768 11 5.74399 11C5.9403 11 6.13376 10.922 6.27512 10.7804L8 9.04703L9.7252 10.7804C9.86624 10.922 10.0549 11 10.256 11C10.4571 11 10.6375 10.9255 10.777 10.7901C10.919 10.6529 10.9981 10.4694 11 10.2733C11.0019 10.0772 10.9263 9.89243 10.7868 9.75273V9.75242Z" fill="white"/>
</svg>