<svg id="Layer_1" data-name="Layer 1" xmlns="http://www.w3.org/2000/svg" viewBox="0 0 547.09 157.16"><defs><style>.cls-1{fill:#231f20;}</style></defs><path class="cls-1" d="M1.45,80.5c0-45.62,34.92-78.58,81.86-78.58,24.89,0,46.27,9,60.46,25.54L125.43,44.7c-11.13-12-24.87-17.9-40.81-17.9C53,26.8,30.05,49.07,30.05,80.5S53,134.2,84.62,134.2c15.94,0,29.68-5.9,40.81-18.12l18.34,17.46c-14.19,16.59-35.57,25.54-60.68,25.54C36.37,159.08,1.45,126.12,1.45,80.5Z" transform="translate(-1.45 -1.92)"/><path class="cls-1" d="M281.92,90.32V4.1H310.3V89.23c0,31.43,14.19,45,38.85,45s38.64-13.54,38.64-45V4.1h27.94V90.32c0,44.53-25.1,68.76-66.79,68.76C307,159.08,281.92,134.85,281.92,90.32Z" transform="translate(-1.45 -1.92)"/><path class="cls-1" d="M222.37,133.27c-21.32,0-35.88-12.61-35.88-44V4.1H158.11V90.32c0,44.53,25.1,68.76,67,68.76,22.81,0,40.61-7.3,52.1-21.17l-18.45-17.52C250.75,131.25,236.18,133.27,222.37,133.27Z" transform="translate(-1.45 -1.92)"/><path class="cls-1" d="M548.55,99.27c0-36.45-24.89-60.24-58.94-60.24-34.71,0-60.25,24.88-60.25,59.59s25.32,59.8,64.4,59.8c18.29,0,33.44-5.48,43.92-15.85l0,.07a37.29,37.29,0,0,0,4.39-4.72l-16.05-15.29c-8.29,8.51-18.56,12.66-31.65,12.66-20.3,0-34.49-10.92-37.76-27.94h91.46C548.32,104.73,548.55,101.45,548.55,99.27Zm-92.12-10c2.62-17,15.5-28.38,33.18-28.38,17.89,0,30.77,11.57,33,28.38Z" transform="translate(-1.45 -1.92)"/></svg>