<svg width="70" height="10" viewBox="0 0 70 10" fill="none" xmlns="http://www.w3.org/2000/svg">
    <g clip-path="url(#s87w0csvza)" fill="#000">
        <path d="m15.862.457.009 5.937c0 .388 0 .976-.315 1.299-.22.227-.576.34-1.06.34h-1.55c-.26 0-.697.002-1.01-.315-.26-.264-.392-.708-.393-1.315L11.537.461H9.6l.007 5.972c0 .597.143 3.568 2.884 3.565l2.553-.003c1.038 0 2.779-.467 2.776-3.57L17.812.453l-1.95.003zM5.075 3.959l-2.116-.27c-.51-.085-.964-.205-.964-.76 0-.877.246-1.115 1.977-1.116h.432c1.02.05 1.965.142 3.123.467l.141.04V.952L7.654.929C7.477.579 5.886.022 4.329.024h-.43C1.272.027-.004 1.025 0 3.074c.001 1.967 1.618 2.39 3.132 2.629l.941.133c.688.089 1.085.145 1.33.245.407.167.633.308.624.965-.013 1.09-.723 1.21-2.261 1.212h-.432c-.906.001-2.003-.259-3.175-.755l-.155-.066v1.338c.002.542 1.603 1.228 3.402 1.225H3.8c2.932-.005 4.297-1.015 4.294-3.184-.003-2.098-1.528-2.621-3.02-2.855M24.457.012h-.286c-3.543.004-4.86 1.37-4.857 5.037l.006 4.95 2.07-.002-.007-4.944c-.002-2.782.605-3.25 2.433-3.254h.464c1.762-.003 2.085.522 2.085 1.807 0 .795-.253 1.712-.972 1.713l-3.261-.057v1.454l.094.015c.656.111 1.818.194 2.701.194 3.047 0 3.543-1.71 3.541-3.143-.003-2.365-1.504-3.773-4.014-3.77M35.437.132C34.899.045 33.642 0 33.003 0c-1.135 0-3.04.475-3.035 3.634L29.976 10l2.029-.003-.008-6.23c-.001-1.678.297-1.85 1.581-1.85h1.86V.131h-.001zM41.706 8.17h-.395c-1.72.004-2.764-.205-2.767-3.11-.003-2.775.607-3.244 2.442-3.247h.463c1.715-.003 2.085.282 2.087 1.61 0 .66-.29.945-.972.945l-3.263.004v1.39l.094.016c.647.112 1.812.197 2.707.195 1.322-.001 3.537-.261 3.537-2.854S43.455.022 41.627.024h-.288c-3.551.004-4.87 1.37-4.866 5.037.005 3.51 1.355 4.942 4.662 4.937h.251c2.095-.003 3.866-.568 3.864-1.234V7.607l-.14.039c-1.218.33-2.165.523-3.404.525M59.324 3.696c-.001-1.726-.638-2.61-1.326-3.065 0 0-.745-.574-2.075-.574a4.858 4.858 0 0 0-1.553.221c-.548.156-.89.428-1.061.601a1.397 1.397 0 0 0-.088.095s-.705-.93-2.703-.918c-.874 0-1.493.246-1.816.416l-.034.018-.05.028c-1.309.725-1.48 2.372-1.48 3.192l.008 6.288h1.846l-.008-6.29c0-.947.188-1.825 1.576-1.826 1.437-.002 1.72.666 1.72 1.823l.008 6.289h1.899l-.008-6.29c0-1.259.505-1.845 1.591-1.846 1.175 0 1.7.566 1.702 1.841l.007 6.289h1.851l-.007-6.29.001-.002zM64.766 1.852h.396c1.72-.003 2.764.206 2.767 3.111.003 2.775-.607 3.244-2.442 3.247h-.463c-1.715.003-2.085-.283-2.087-1.61 0-.661.29-.945.972-.945l3.263-.005V4.261l-.094-.016c-.647-.113-1.812-.197-2.707-.196-1.322.002-3.536.262-3.536 2.855 0 2.592 2.182 3.096 4.01 3.093h.288c3.55-.005 4.87-1.37 4.865-5.037C69.994 1.45 68.644.018 65.337.022h-.251C62.99.025 61.22.591 61.22 1.256v1.158l.141-.04c1.218-.33 2.165-.522 3.403-.524"/>
    </g>
    <defs>
        <clipPath id="s87w0csvza">
            <path fill="#fff" d="M0 0h70v10H0z"/>
        </clipPath>
    </defs>
</svg>
