<svg width="30" height="30" viewBox="0 0 30 30" fill="none" xmlns="http://www.w3.org/2000/svg">
    <circle cx="15" cy="15" r="15" fill="#C7C7C7"/>
    <path d="M10.0854 14.4573C10.0854 17.4712 12.5288 19.9146 15.5427 19.9146C18.5567 19.9146 21 17.4712 21 14.4573C21 11.4433 18.5567 9 15.5427 9C12.5288 9 10.0854 11.4433 10.0854 14.4573Z" stroke="white" stroke-width="2" stroke-linecap="round" stroke-linejoin="round"/>
    <path d="M8.72108 21.2788L11.6885 18.3114" stroke="white" stroke-width="2" stroke-linecap="round" stroke-linejoin="round"/>
    <circle cx="19.5668" cy="19.9125" r="4.75677" fill="white" stroke="#C7C7C7"/>
    <path d="M20.063 21.1464H19.159V20.6584C19.159 20.445 19.183 20.2877 19.231 20.1864C19.2843 20.0797 19.3963 19.941 19.567 19.7704L20.151 19.1864C20.2736 19.053 20.335 18.8877 20.335 18.6904C20.335 18.493 20.271 18.3304 20.143 18.2024C20.015 18.069 19.8496 18.0024 19.647 18.0024C19.4443 18.0024 19.2736 18.0664 19.135 18.1944C19.0016 18.317 18.9243 18.4824 18.903 18.6904H17.935C17.9883 18.2157 18.1723 17.845 18.487 17.5784C18.807 17.3064 19.2043 17.1704 19.679 17.1704C20.1536 17.1704 20.5403 17.301 20.839 17.5624C21.1376 17.8184 21.287 18.1784 21.287 18.6424C21.287 18.9624 21.199 19.229 21.023 19.4424C20.9216 19.5704 20.8443 19.661 20.791 19.7144C20.7376 19.7677 20.6656 19.837 20.575 19.9224C20.4896 20.0024 20.415 20.0744 20.351 20.1384C20.2923 20.197 20.2443 20.2477 20.207 20.2904C20.111 20.4077 20.063 20.573 20.063 20.7864V21.1464ZM19.623 22.9224C19.4576 22.9224 19.3136 22.8664 19.191 22.7544C19.0683 22.637 19.007 22.4984 19.007 22.3384C19.007 22.173 19.0656 22.0317 19.183 21.9144C19.3056 21.797 19.4496 21.7384 19.615 21.7384C19.7856 21.7384 19.9323 21.797 20.055 21.9144C20.1776 22.0264 20.239 22.165 20.239 22.3304C20.239 22.4904 20.1776 22.629 20.055 22.7464C19.9376 22.8637 19.7936 22.9224 19.623 22.9224Z" fill="#C7C7C7"/>
</svg>
