<svg xmlns="http://www.w3.org/2000/svg" width="20" height="20" viewBox="0 0 20 20" fill="none">
    <circle cx="10" cy="10" r="10" fill="#2F3A6D"/>
    <path transform="translate(3.8, 3.8)" d="M1.4 2.60004L3.5 4.00004L5.593 1.07004C5.63926 1.00523 5.70032 0.952394 5.77111 0.915942C5.8419 0.879491 5.92038 0.860474 6 0.860474C6.07963 0.860474 6.1581 0.879491 6.2289 0.915942C6.29969 0.952394 6.36075 1.00523 6.407 1.07004L8.5 4.00004L10.6 2.60004C10.6795 2.54716 10.7724 2.51814 10.8679 2.51641C10.9633 2.51467 11.0573 2.5403 11.1386 2.59025C11.22 2.64021 11.2853 2.7124 11.3269 2.79831C11.3686 2.88422 11.3847 2.98024 11.3735 3.07504L10.552 10.0585C10.5377 10.1802 10.4792 10.2923 10.3877 10.3737C10.2962 10.4551 10.178 10.5 10.0555 10.5H1.9445C1.82204 10.5 1.70384 10.4551 1.61232 10.3737C1.5208 10.2923 1.46233 10.1802 1.448 10.0585L0.626504 3.07454C0.615404 2.97978 0.631646 2.88383 0.673314 2.798C0.714982 2.71217 0.780335 2.64006 0.861659 2.59017C0.942983 2.54028 1.03688 2.5147 1.13227 2.51645C1.22766 2.5182 1.32056 2.54721 1.4 2.60004ZM6 7.50004C6.26522 7.50004 6.51957 7.39468 6.70711 7.20715C6.89465 7.01961 7 6.76526 7 6.50004C7 6.23482 6.89465 5.98047 6.70711 5.79293C6.51957 5.6054 6.26522 5.50004 6 5.50004C5.73479 5.50004 5.48043 5.6054 5.2929 5.79293C5.10536 5.98047 5 6.23482 5 6.50004C5 6.76526 5.10536 7.01961 5.2929 7.20715C5.48043 7.39468 5.73479 7.50004 6 7.50004Z" fill="#FFF740"/>
</svg>