<svg width="38" height="38" viewBox="0 0 38 38" fill="none" xmlns="http://www.w3.org/2000/svg">
    <path d="m28.169 8.22-.088-.231-3.033 3.103a9.454 9.454 0 0 1 1.482.998l3.294-3.37h-.767c-.4 0-.766-.107-.906-.5h.018zM23.636 12.553l-9.935 10.165c.261.552.54 1.105.923 1.587L25.206 13.48a8.074 8.074 0 0 0-1.551-.945l-.018.018zM4.253 32.383.261 36.466a.897.897 0 0 0 0 1.266c.175.179.401.268.61.268.21 0 .454-.09.61-.268L5.7 33.417c-.593-.214-1.063-.588-1.464-1.034h.017zM12.254 24.18l-6.78 6.937c.4.463.976.73 1.725.749l6.031-6.17a8.585 8.585 0 0 1-.976-1.516zM31.585 6.937l5.282-5.403a.897.897 0 0 0 0-1.267.85.85 0 0 0-1.238 0l-6.048 6.188.156.482h1.848z" fill="#C9C9C9"/>
    <path d="M5.473 31.135c-.4-.464-.61-1.106-.61-1.873v-17.44c0-1.604.872-3.102 2.44-3.102h4.724c.401 0 .767-.16.907-.553l1.464-4.315c.122-.393.488-.482.889-.482h10.51c.402 0 .768.143.89.535l1.377 4.084.087.231c.122.393.488.5.907.5h.767l1.743-1.783h-1.83l-.158-.482-1.08-3.12c-.384-1.195-1.465-1.748-2.685-1.748h-10.51c-1.22 0-2.302.57-2.685 1.747l-1.238 3.603H7.338c-2.614 0-4.183 2.229-4.183 4.885v17.422c0 1.32.418 2.372 1.115 3.139.401.446.872.82 1.465 1.034l1.499-1.534c-.75-.017-1.325-.303-1.726-.748h-.035zM34.026 6.955 32.3 8.72h1.5c1.568 0 2.44 1.516 2.44 3.103v17.422c0 1.604-.872 2.657-2.44 2.657H9.656l-1.743 1.783h25.903c2.614 0 4.183-1.766 4.183-4.44V11.823c0-2.586-1.499-4.744-3.957-4.868h-.017z" fill="#C9C9C9"/>
    <path d="M20.551 27.319c-1.795 0-3.416-.678-4.724-1.748l-1.36 1.391a9.231 9.231 0 0 0 6.084 2.282c5.212 0 9.465-4.333 9.465-9.682a9.702 9.702 0 0 0-2.23-6.224l-1.36 1.391c1.045 1.338 1.708 2.996 1.708 4.833 0 4.262-3.4 7.739-7.565 7.739l-.018.018zM25.066 11.074a9.237 9.237 0 0 0-4.514-1.195c-5.212 0-9.466 4.333-9.466 9.683 0 1.676.436 3.245 1.168 4.618.28.535.61 1.052.976 1.516l1.36-1.391a8.337 8.337 0 0 1-.924-1.587 7.592 7.592 0 0 1-.697-3.156c0-4.262 3.4-7.74 7.565-7.74 1.098 0 2.144.268 3.085.714.54.267 1.081.553 1.552.945l1.36-1.39a8.358 8.358 0 0 0-1.482-1l.017-.017z" fill="#C9C9C9"/>
</svg>
