<svg width="18" height="18" viewBox="0 0 18 18" fill="none" xmlns="http://www.w3.org/2000/svg" transform="rotate(180)">
  <path d="M5.58986 2.68167C5.65913 2.68164 5.72772 2.69476 5.79172 2.7203C5.85572 2.74583 5.91388 2.78328 5.96287 2.83049L12.4629 9.09872C12.5618 9.19408 12.6173 9.3234 12.6173 9.45823C12.6173 9.59307 12.5618 9.72239 12.4629 9.81775L5.96287 16.086C5.91391 16.1332 5.85578 16.1707 5.7918 16.1963C5.72782 16.2218 5.65925 16.235 5.58999 16.235C5.52073 16.235 5.45215 16.2219 5.38816 16.1963C5.32416 16.1708 5.26602 16.1334 5.21703 16.0861C5.16805 16.0389 5.12919 15.9829 5.10267 15.9212C5.07615 15.8595 5.06249 15.7934 5.06247 15.7266C5.06246 15.6598 5.07608 15.5937 5.10257 15.532C5.12906 15.4703 5.1679 15.4142 5.21686 15.3669L11.3442 9.4584L5.21686 3.54986C5.14306 3.47874 5.0928 3.38812 5.07243 3.28944C5.05206 3.19077 5.0625 3.08849 5.10244 2.99555C5.14237 2.9026 5.21 2.82316 5.29676 2.76729C5.38353 2.71142 5.48553 2.68162 5.58986 2.68167Z" fill="#C9C9C9" stroke="#C9C9C9" stroke-width="0.5"/>
</svg>
