<svg width="20" height="20" viewBox="0 0 20 20" fill="none" xmlns="http://www.w3.org/2000/svg">
<path d="M16.5217 2.30435H14.087V1.6087C14.087 1.26957 13.8174 1 13.4783 1C13.1391 1 12.8696 1.26957 12.8696 1.6087V2.30435H7.13043V1.6087C7.13043 1.26957 6.86087 1 6.52174 1C6.18261 1 5.91304 1.26957 5.91304 1.6087V2.30435H3.47826C2.66087 2.30435 2 3.01739 2 3.89565V16.7043C2 17.5826 2.66087 18.2957 3.47826 18.2957H16.5217C17.3391 18.2957 18 17.5826 18 16.7043V3.89565C18 3.01739 17.3391 2.30435 16.5217 2.30435ZM16.5217 17.087H3.47826C3.35652 17.087 3.21739 16.9304 3.21739 16.713V8.73913H16.7826V16.713C16.7826 16.9391 16.6435 17.087 16.5217 17.087ZM16.7826 7.21739V7.52174H3.21739V3.89565C3.21739 3.67826 3.35652 3.52174 3.47826 3.52174H5.91304V5.08696C5.91304 5.42609 6.18261 5.69565 6.52174 5.69565C6.86087 5.69565 7.13043 5.42609 7.13043 5.08696V3.52174H12.8696V5.08696C12.8696 5.42609 13.1391 5.69565 13.4783 5.69565C13.8174 5.69565 14.087 5.42609 14.087 5.08696V3.52174H16.5217C16.6435 3.52174 16.7826 3.67826 16.7826 3.89565V7.21739Z" fill="#6682FF"/>
</svg>
