<svg width="16" height="16" viewBox="0 0 16 16" fill="none" xmlns="http://www.w3.org/2000/svg">
<path d="M11.4865 10.3477L15.8106 14.68C15.941 14.8344 16.0084 15.0323 15.9992 15.2342C15.99 15.4361 15.9049 15.6271 15.761 15.769C15.6171 15.9109 15.4249 15.9933 15.2229 15.9996C15.0209 16.0059 14.8239 15.9358 14.6714 15.8032L10.3553 11.4869C9.06583 12.4886 7.44308 12.9612 5.81745 12.8084C4.19181 12.6556 2.68553 11.8889 1.60531 10.6645C0.525081 9.44002 -0.0478631 7.84988 0.00313417 6.21781C0.0541314 4.58575 0.725236 3.03448 1.8798 1.87987C3.03436 0.725264 4.58557 0.0541335 6.21757 0.00313429C7.84958 -0.047865 9.43966 0.525101 10.6641 1.60537C11.8885 2.68564 12.6551 4.19197 12.8079 5.81767C12.9607 7.44337 12.4881 9.06618 11.4865 10.3557V10.3477ZM6.41622 11.2302C7.69285 11.2302 8.91719 10.723 9.8199 9.82028C10.7226 8.91753 11.2297 7.69315 11.2297 6.41647C11.2297 5.1398 10.7226 3.91541 9.8199 3.01267C8.91719 2.10992 7.69285 1.60277 6.41622 1.60277C5.1396 1.60277 3.91526 2.10992 3.01255 3.01267C2.10984 3.91541 1.60271 5.1398 1.60271 6.41647C1.60271 7.69315 2.10984 8.91753 3.01255 9.82028C3.91526 10.723 5.1396 11.2302 6.41622 11.2302Z" fill="black"/>
</svg>
