<svg width="20" height="20" viewBox="0 0 20 20" fill="none" xmlns="http://www.w3.org/2000/svg">
<mask id="path-1-outside-1_114_2" maskUnits="userSpaceOnUse" x="1" y="1" width="18" height="18" fill="#000000">
<rect fill="white" x="1" y="1" width="18" height="18"/>
<path d="M16.1065 13.7126C15.8803 13.7126 15.6527 13.7098 15.4265 13.7126C14.9047 13.7224 14.5452 14.1519 14.6479 14.6757C14.7354 15.1263 14.8547 15.5699 14.9671 16.0148C15.0393 16.3007 14.9616 16.5232 14.727 16.695C13.9291 17.2822 13.0561 17.7102 12.1041 17.9721C11.8362 18.0468 11.6239 17.9693 11.4573 17.7511C11.2048 17.4201 10.9536 17.0878 10.701 16.7569C10.286 16.2134 9.71702 16.2134 9.30345 16.7569C9.0592 17.0794 8.81633 17.4032 8.57068 17.7257C8.37084 17.9876 8.17932 18.051 7.86706 17.9623C6.93583 17.6961 6.07677 17.2779 5.29265 16.702C5.03868 16.5147 4.96929 16.3246 5.04285 16.0106C5.14138 15.5924 5.24408 15.1756 5.34262 14.7574C5.4814 14.166 5.12056 13.7013 4.52519 13.7083C4.09497 13.7126 3.66474 13.721 3.23452 13.7252C2.9292 13.7281 2.76127 13.614 2.64053 13.3296C2.25611 12.4143 2.04099 11.461 2.00075 10.4669C1.98964 10.188 2.10206 9.9895 2.35048 9.87122C2.7349 9.68957 3.12072 9.51215 3.50376 9.32909C4.08386 9.05169 4.21154 8.47999 3.8063 7.98011C3.53984 7.65202 3.27338 7.32534 3.00553 6.99865C2.81956 6.77195 2.80846 6.53679 2.94585 6.2791C3.41077 5.40889 4.00892 4.6485 4.74169 3.99654C4.95403 3.80785 5.18024 3.77124 5.43282 3.89938C5.80615 4.08948 6.17947 4.28098 6.55418 4.46967C7.14401 4.76678 7.66721 4.50487 7.80044 3.8501C7.88094 3.4516 7.96421 3.05451 8.04609 2.65601C8.11409 2.32933 8.25287 2.19415 8.57485 2.1336C9.53383 1.95336 10.4928 1.95759 11.4518 2.1336C11.7391 2.18711 11.9001 2.35608 11.9584 2.64193C12.0472 3.07422 12.136 3.50652 12.2317 3.9374C12.3553 4.4922 12.8868 4.75129 13.3934 4.50206C13.7792 4.31196 14.1608 4.10919 14.5439 3.91346C14.8325 3.76702 15.0379 3.79659 15.278 4.01062C15.9969 4.65132 16.5853 5.39903 17.0433 6.25094C17.2099 6.56073 17.1946 6.75364 16.9739 7.02822C16.7172 7.34787 16.4563 7.6661 16.1981 7.98434C15.7915 8.48844 15.922 9.06014 16.5035 9.33191C16.8615 9.49947 17.221 9.66563 17.579 9.8332C17.9232 9.99372 18.0148 10.1557 17.9981 10.5401C17.9537 11.5046 17.74 12.4284 17.3681 13.3155C17.2432 13.614 17.0808 13.7252 16.7658 13.7238C16.6547 13.7238 16.5451 13.721 16.4341 13.7196C16.323 13.7196 16.2134 13.7196 16.1024 13.7196V13.7098L16.1065 13.7126ZM6.20029 15.981C6.46675 16.1303 6.71517 16.2824 6.97608 16.4105C7.23144 16.5358 7.50206 16.6302 7.76158 16.7457C7.85873 16.7893 7.90731 16.7499 7.96282 16.6738C8.13213 16.4415 8.307 16.2134 8.48325 15.9867C9.26876 14.9771 10.7079 14.9672 11.5059 15.9656C11.6891 16.1951 11.8668 16.4288 12.0388 16.6654C12.1041 16.7541 12.1624 16.7921 12.2692 16.7386C12.7425 16.5035 13.2185 16.2725 13.6931 16.0416C13.7903 15.9951 13.8028 15.9318 13.775 15.8304C13.6945 15.529 13.621 15.2263 13.5557 14.9207C13.3295 13.8731 13.9984 12.81 15.0379 12.6283C15.4515 12.5565 15.8831 12.5917 16.3064 12.5917C16.4285 12.5917 16.4882 12.5565 16.5132 12.4396C16.627 11.9172 16.7422 11.3948 16.8601 10.8738C16.8809 10.7795 16.8476 10.7372 16.7644 10.7006C16.4979 10.5823 16.2342 10.4598 15.9733 10.3317C14.8089 9.76561 14.4897 8.34341 15.2961 7.32111C15.4737 7.09581 15.6527 6.87051 15.8401 6.65226C15.9109 6.57058 15.9206 6.50581 15.854 6.42273C15.5237 6.00452 15.1947 5.58631 14.8672 5.16669C14.8034 5.08502 14.7409 5.07516 14.6452 5.12726C14.369 5.27793 14.09 5.42578 13.8041 5.55533C12.6994 6.05944 11.4338 5.42438 11.1534 4.22888C11.084 3.93036 11.0202 3.63184 10.9647 3.3305C10.9452 3.22348 10.8981 3.1742 10.7954 3.1742C10.268 3.1742 9.73923 3.1742 9.21186 3.1742C9.10916 3.1742 9.06336 3.22348 9.04532 3.33191C8.99952 3.59945 8.93846 3.86277 8.88433 4.12891C8.61648 5.44127 7.29805 6.09605 6.11008 5.50745C5.85472 5.38072 5.60353 5.24554 5.344 5.12445C5.29682 5.10332 5.19828 5.11318 5.17053 5.14698C4.82357 5.57364 4.48217 6.00452 4.14909 6.44245C4.11995 6.48187 4.13105 6.5903 4.16436 6.63395C4.35171 6.88178 4.55572 7.11693 4.74724 7.36054C4.99982 7.68441 5.14416 8.05615 5.15248 8.46873C5.16914 9.32064 4.7861 9.93458 4.04501 10.3204C3.74662 10.4753 3.43853 10.6105 3.13737 10.7541C3.1915 11.3554 3.31501 11.9214 3.50792 12.4748C3.53984 12.5649 3.58425 12.5903 3.67168 12.5875C3.94508 12.579 4.21848 12.579 4.49188 12.5748C5.82558 12.5495 6.74431 13.7126 6.42928 15.0278C6.35572 15.3361 6.28217 15.6445 6.20168 15.981H6.20029Z"/>
</mask>
<path d="M16.1065 13.7126C15.8803 13.7126 15.6527 13.7098 15.4265 13.7126C14.9047 13.7224 14.5452 14.1519 14.6479 14.6757C14.7354 15.1263 14.8547 15.5699 14.9671 16.0148C15.0393 16.3007 14.9616 16.5232 14.727 16.695C13.9291 17.2822 13.0561 17.7102 12.1041 17.9721C11.8362 18.0468 11.6239 17.9693 11.4573 17.7511C11.2048 17.4201 10.9536 17.0878 10.701 16.7569C10.286 16.2134 9.71702 16.2134 9.30345 16.7569C9.0592 17.0794 8.81633 17.4032 8.57068 17.7257C8.37084 17.9876 8.17932 18.051 7.86706 17.9623C6.93583 17.6961 6.07677 17.2779 5.29265 16.702C5.03868 16.5147 4.96929 16.3246 5.04285 16.0106C5.14138 15.5924 5.24408 15.1756 5.34262 14.7574C5.4814 14.166 5.12056 13.7013 4.52519 13.7083C4.09497 13.7126 3.66474 13.721 3.23452 13.7252C2.9292 13.7281 2.76127 13.614 2.64053 13.3296C2.25611 12.4143 2.04099 11.461 2.00075 10.4669C1.98964 10.188 2.10206 9.9895 2.35048 9.87122C2.7349 9.68957 3.12072 9.51215 3.50376 9.32909C4.08386 9.05169 4.21154 8.47999 3.8063 7.98011C3.53984 7.65202 3.27338 7.32534 3.00553 6.99865C2.81956 6.77195 2.80846 6.53679 2.94585 6.2791C3.41077 5.40889 4.00892 4.6485 4.74169 3.99654C4.95403 3.80785 5.18024 3.77124 5.43282 3.89938C5.80615 4.08948 6.17947 4.28098 6.55418 4.46967C7.14401 4.76678 7.66721 4.50487 7.80044 3.8501C7.88094 3.4516 7.96421 3.05451 8.04609 2.65601C8.11409 2.32933 8.25287 2.19415 8.57485 2.1336C9.53383 1.95336 10.4928 1.95759 11.4518 2.1336C11.7391 2.18711 11.9001 2.35608 11.9584 2.64193C12.0472 3.07422 12.136 3.50652 12.2317 3.9374C12.3553 4.4922 12.8868 4.75129 13.3934 4.50206C13.7792 4.31196 14.1608 4.10919 14.5439 3.91346C14.8325 3.76702 15.0379 3.79659 15.278 4.01062C15.9969 4.65132 16.5853 5.39903 17.0433 6.25094C17.2099 6.56073 17.1946 6.75364 16.9739 7.02822C16.7172 7.34787 16.4563 7.6661 16.1981 7.98434C15.7915 8.48844 15.922 9.06014 16.5035 9.33191C16.8615 9.49947 17.221 9.66563 17.579 9.8332C17.9232 9.99372 18.0148 10.1557 17.9981 10.5401C17.9537 11.5046 17.74 12.4284 17.3681 13.3155C17.2432 13.614 17.0808 13.7252 16.7658 13.7238C16.6547 13.7238 16.5451 13.721 16.4341 13.7196C16.323 13.7196 16.2134 13.7196 16.1024 13.7196V13.7098L16.1065 13.7126ZM6.20029 15.981C6.46675 16.1303 6.71517 16.2824 6.97608 16.4105C7.23144 16.5358 7.50206 16.6302 7.76158 16.7457C7.85873 16.7893 7.90731 16.7499 7.96282 16.6738C8.13213 16.4415 8.307 16.2134 8.48325 15.9867C9.26876 14.9771 10.7079 14.9672 11.5059 15.9656C11.6891 16.1951 11.8668 16.4288 12.0388 16.6654C12.1041 16.7541 12.1624 16.7921 12.2692 16.7386C12.7425 16.5035 13.2185 16.2725 13.6931 16.0416C13.7903 15.9951 13.8028 15.9318 13.775 15.8304C13.6945 15.529 13.621 15.2263 13.5557 14.9207C13.3295 13.8731 13.9984 12.81 15.0379 12.6283C15.4515 12.5565 15.8831 12.5917 16.3064 12.5917C16.4285 12.5917 16.4882 12.5565 16.5132 12.4396C16.627 11.9172 16.7422 11.3948 16.8601 10.8738C16.8809 10.7795 16.8476 10.7372 16.7644 10.7006C16.4979 10.5823 16.2342 10.4598 15.9733 10.3317C14.8089 9.76561 14.4897 8.34341 15.2961 7.32111C15.4737 7.09581 15.6527 6.87051 15.8401 6.65226C15.9109 6.57058 15.9206 6.50581 15.854 6.42273C15.5237 6.00452 15.1947 5.58631 14.8672 5.16669C14.8034 5.08502 14.7409 5.07516 14.6452 5.12726C14.369 5.27793 14.09 5.42578 13.8041 5.55533C12.6994 6.05944 11.4338 5.42438 11.1534 4.22888C11.084 3.93036 11.0202 3.63184 10.9647 3.3305C10.9452 3.22348 10.8981 3.1742 10.7954 3.1742C10.268 3.1742 9.73923 3.1742 9.21186 3.1742C9.10916 3.1742 9.06336 3.22348 9.04532 3.33191C8.99952 3.59945 8.93846 3.86277 8.88433 4.12891C8.61648 5.44127 7.29805 6.09605 6.11008 5.50745C5.85472 5.38072 5.60353 5.24554 5.344 5.12445C5.29682 5.10332 5.19828 5.11318 5.17053 5.14698C4.82357 5.57364 4.48217 6.00452 4.14909 6.44245C4.11995 6.48187 4.13105 6.5903 4.16436 6.63395C4.35171 6.88178 4.55572 7.11693 4.74724 7.36054C4.99982 7.68441 5.14416 8.05615 5.15248 8.46873C5.16914 9.32064 4.7861 9.93458 4.04501 10.3204C3.74662 10.4753 3.43853 10.6105 3.13737 10.7541C3.1915 11.3554 3.31501 11.9214 3.50792 12.4748C3.53984 12.5649 3.58425 12.5903 3.67168 12.5875C3.94508 12.579 4.21848 12.579 4.49188 12.5748C5.82558 12.5495 6.74431 13.7126 6.42928 15.0278C6.35572 15.3361 6.28217 15.6445 6.20168 15.981H6.20029Z" fill="#6682FF"/>
<path d="M16.1065 13.7126C15.8803 13.7126 15.6527 13.7098 15.4265 13.7126C14.9047 13.7224 14.5452 14.1519 14.6479 14.6757C14.7354 15.1263 14.8547 15.5699 14.9671 16.0148C15.0393 16.3007 14.9616 16.5232 14.727 16.695C13.9291 17.2822 13.0561 17.7102 12.1041 17.9721C11.8362 18.0468 11.6239 17.9693 11.4573 17.7511C11.2048 17.4201 10.9536 17.0878 10.701 16.7569C10.286 16.2134 9.71702 16.2134 9.30345 16.7569C9.0592 17.0794 8.81633 17.4032 8.57068 17.7257C8.37084 17.9876 8.17932 18.051 7.86706 17.9623C6.93583 17.6961 6.07677 17.2779 5.29265 16.702C5.03868 16.5147 4.96929 16.3246 5.04285 16.0106C5.14138 15.5924 5.24408 15.1756 5.34262 14.7574C5.4814 14.166 5.12056 13.7013 4.52519 13.7083C4.09497 13.7126 3.66474 13.721 3.23452 13.7252C2.9292 13.7281 2.76127 13.614 2.64053 13.3296C2.25611 12.4143 2.04099 11.461 2.00075 10.4669C1.98964 10.188 2.10206 9.9895 2.35048 9.87122C2.7349 9.68957 3.12072 9.51215 3.50376 9.32909C4.08386 9.05169 4.21154 8.47999 3.8063 7.98011C3.53984 7.65202 3.27338 7.32534 3.00553 6.99865C2.81956 6.77195 2.80846 6.53679 2.94585 6.2791C3.41077 5.40889 4.00892 4.6485 4.74169 3.99654C4.95403 3.80785 5.18024 3.77124 5.43282 3.89938C5.80615 4.08948 6.17947 4.28098 6.55418 4.46967C7.14401 4.76678 7.66721 4.50487 7.80044 3.8501C7.88094 3.4516 7.96421 3.05451 8.04609 2.65601C8.11409 2.32933 8.25287 2.19415 8.57485 2.1336C9.53383 1.95336 10.4928 1.95759 11.4518 2.1336C11.7391 2.18711 11.9001 2.35608 11.9584 2.64193C12.0472 3.07422 12.136 3.50652 12.2317 3.9374C12.3553 4.4922 12.8868 4.75129 13.3934 4.50206C13.7792 4.31196 14.1608 4.10919 14.5439 3.91346C14.8325 3.76702 15.0379 3.79659 15.278 4.01062C15.9969 4.65132 16.5853 5.39903 17.0433 6.25094C17.2099 6.56073 17.1946 6.75364 16.9739 7.02822C16.7172 7.34787 16.4563 7.6661 16.1981 7.98434C15.7915 8.48844 15.922 9.06014 16.5035 9.33191C16.8615 9.49947 17.221 9.66563 17.579 9.8332C17.9232 9.99372 18.0148 10.1557 17.9981 10.5401C17.9537 11.5046 17.74 12.4284 17.3681 13.3155C17.2432 13.614 17.0808 13.7252 16.7658 13.7238C16.6547 13.7238 16.5451 13.721 16.4341 13.7196C16.323 13.7196 16.2134 13.7196 16.1024 13.7196V13.7098L16.1065 13.7126ZM6.20029 15.981C6.46675 16.1303 6.71517 16.2824 6.97608 16.4105C7.23144 16.5358 7.50206 16.6302 7.76158 16.7457C7.85873 16.7893 7.90731 16.7499 7.96282 16.6738C8.13213 16.4415 8.307 16.2134 8.48325 15.9867C9.26876 14.9771 10.7079 14.9672 11.5059 15.9656C11.6891 16.1951 11.8668 16.4288 12.0388 16.6654C12.1041 16.7541 12.1624 16.7921 12.2692 16.7386C12.7425 16.5035 13.2185 16.2725 13.6931 16.0416C13.7903 15.9951 13.8028 15.9318 13.775 15.8304C13.6945 15.529 13.621 15.2263 13.5557 14.9207C13.3295 13.8731 13.9984 12.81 15.0379 12.6283C15.4515 12.5565 15.8831 12.5917 16.3064 12.5917C16.4285 12.5917 16.4882 12.5565 16.5132 12.4396C16.627 11.9172 16.7422 11.3948 16.8601 10.8738C16.8809 10.7795 16.8476 10.7372 16.7644 10.7006C16.4979 10.5823 16.2342 10.4598 15.9733 10.3317C14.8089 9.76561 14.4897 8.34341 15.2961 7.32111C15.4737 7.09581 15.6527 6.87051 15.8401 6.65226C15.9109 6.57058 15.9206 6.50581 15.854 6.42273C15.5237 6.00452 15.1947 5.58631 14.8672 5.16669C14.8034 5.08502 14.7409 5.07516 14.6452 5.12726C14.369 5.27793 14.09 5.42578 13.8041 5.55533C12.6994 6.05944 11.4338 5.42438 11.1534 4.22888C11.084 3.93036 11.0202 3.63184 10.9647 3.3305C10.9452 3.22348 10.8981 3.1742 10.7954 3.1742C10.268 3.1742 9.73923 3.1742 9.21186 3.1742C9.10916 3.1742 9.06336 3.22348 9.04532 3.33191C8.99952 3.59945 8.93846 3.86277 8.88433 4.12891C8.61648 5.44127 7.29805 6.09605 6.11008 5.50745C5.85472 5.38072 5.60353 5.24554 5.344 5.12445C5.29682 5.10332 5.19828 5.11318 5.17053 5.14698C4.82357 5.57364 4.48217 6.00452 4.14909 6.44245C4.11995 6.48187 4.13105 6.5903 4.16436 6.63395C4.35171 6.88178 4.55572 7.11693 4.74724 7.36054C4.99982 7.68441 5.14416 8.05615 5.15248 8.46873C5.16914 9.32064 4.7861 9.93458 4.04501 10.3204C3.74662 10.4753 3.43853 10.6105 3.13737 10.7541C3.1915 11.3554 3.31501 11.9214 3.50792 12.4748C3.53984 12.5649 3.58425 12.5903 3.67168 12.5875C3.94508 12.579 4.21848 12.579 4.49188 12.5748C5.82558 12.5495 6.74431 13.7126 6.42928 15.0278C6.35572 15.3361 6.28217 15.6445 6.20168 15.981H6.20029Z" stroke="#6682FF" stroke-width="0.2" mask="url(#path-1-outside-1_114_2)"/>
<mask id="path-2-outside-2_114_2" maskUnits="userSpaceOnUse" x="6" y="6" width="8" height="8" fill="#000000">
<rect fill="white" x="6" y="6" width="8" height="8"/>
<path d="M13 10.009C12.9961 11.6628 11.6501 13.0026 9.99612 13C8.33694 12.9987 6.99484 11.646 7.00001 9.98449C7.00649 8.34238 8.35247 7.00129 9.99612 7C11.6566 7 13.0039 8.34884 13 10.009V10.009ZM11.9594 10.0026C11.9594 8.92119 11.0794 8.04005 9.99871 8.04005C8.9271 8.04005 8.04574 8.9199 8.04315 9.99225C8.04056 11.0749 8.91804 11.9599 9.99612 11.9625C11.0781 11.9638 11.9594 11.0853 11.9607 10.0039L11.9594 10.0026Z"/>
</mask>
<path d="M13 10.009C12.9961 11.6628 11.6501 13.0026 9.99612 13C8.33694 12.9987 6.99484 11.646 7.00001 9.98449C7.00649 8.34238 8.35247 7.00129 9.99612 7C11.6566 7 13.0039 8.34884 13 10.009V10.009ZM11.9594 10.0026C11.9594 8.92119 11.0794 8.04005 9.99871 8.04005C8.9271 8.04005 8.04574 8.9199 8.04315 9.99225C8.04056 11.0749 8.91804 11.9599 9.99612 11.9625C11.0781 11.9638 11.9594 11.0853 11.9607 10.0039L11.9594 10.0026Z" fill="#6682FF"/>
<path d="M13 10.009C12.9961 11.6628 11.6501 13.0026 9.99612 13C8.33694 12.9987 6.99484 11.646 7.00001 9.98449C7.00649 8.34238 8.35247 7.00129 9.99612 7C11.6566 7 13.0039 8.34884 13 10.009V10.009ZM11.9594 10.0026C11.9594 8.92119 11.0794 8.04005 9.99871 8.04005C8.9271 8.04005 8.04574 8.9199 8.04315 9.99225C8.04056 11.0749 8.91804 11.9599 9.99612 11.9625C11.0781 11.9638 11.9594 11.0853 11.9607 10.0039L11.9594 10.0026Z" stroke="#6682FF" stroke-width="0.2" mask="url(#path-2-outside-2_114_2)"/>
</svg>
