<svg width="20" height="20" viewBox="0 0 20 20" fill="none" xmlns="http://www.w3.org/2000/svg">
    <path d="M14.375 17.187a.937.937 0 0 1-.663-.274l-3.125-3.125a.937.937 0 1 1 1.325-1.326l2.462 2.462 2.462-2.462a.937.937 0 1 1 1.326 1.326l-3.125 3.125a.935.935 0 0 1-.664.274h.002z" fill="#9CA3AF"/>
    <path d="M14.375 17.188a.937.937 0 0 1-.938-.938v-7.5a.937.937 0 1 1 1.876 0v7.5c0 .518-.42.938-.938.938zM9.375 10.938H3.75a.937.937 0 1 1 0-1.876h5.625a.937.937 0 1 1 0 1.876zM14.375 5.938H3.75a.937.937 0 1 1 0-1.875h10.625a.937.937 0 1 1 0 1.875zM8.125 15.938H3.75a.937.937 0 1 1 0-1.876h4.375a.937.937 0 1 1 0 1.876z" fill="#9CA3AF"/>
</svg>
