<svg width="82" height="24" viewBox="0 0 82 24" fill="none" xmlns="http://www.w3.org/2000/svg">
    <path d="M0 2v20.5h21.886V2H0zm5.343 15.273V7.227h11.193v10.046H5.343zM32.986 8.305c2.7 0 4.899 2.151 4.899 4.793 0 2.64-2.199 4.792-4.899 4.792s-4.898-2.151-4.898-4.793c0-2.64 2.198-4.792 4.898-4.792zm0-4.386c-5.185 0-9.381 4.113-9.381 9.178 0 5.066 4.203 9.179 9.381 9.179 5.185 0 9.382-4.113 9.382-9.178 0-5.066-4.204-9.179-9.382-9.179zM52.802 8.305c2.7 0 4.899 2.151 4.899 4.793 0 2.64-2.199 4.792-4.899 4.792s-4.898-2.151-4.898-4.793c0-2.64 2.198-4.792 4.898-4.792zm0-4.386c-5.185 0-9.382 4.113-9.382 9.178 0 5.066 4.204 9.179 9.382 9.179 5.185 0 9.382-4.113 9.382-9.178 0-5.066-4.204-9.179-9.382-9.179zM72.618 3.927c-5.184 0-9.381 4.112-9.381 9.178v9.178h4.483v-9.178c0-2.642 2.199-4.792 4.898-4.792 2.7 0 4.899 2.15 4.899 4.792v9.178H82v-9.178c0-5.073-4.204-9.178-9.382-9.178z" fill="#fff"/>
</svg>
