<svg width="30" height="30" viewBox="0 0 30 30" fill="none" xmlns="http://www.w3.org/2000/svg">
<rect x="0.5" y="0.5" width="29" height="29" rx="14.5" fill="#E7E7E7" stroke="#F7F7F7"/>
<path d="M23.9634 15.7937C23.8103 15.5152 23.6571 15.2437 23.5039 14.9791C23.1558 14.3664 22.8564 13.886 22.6057 13.5379L22.4178 13.2663C22.0557 12.7511 21.7633 12.3612 21.5405 12.0966C21.1506 11.6092 20.8442 11.3377 20.6214 11.282C20.6075 11.2681 20.597 11.2541 20.5901 11.2402C20.5831 11.2263 20.5866 11.2124 20.6005 11.1984C21.0183 10.906 21.3037 10.5231 21.4569 10.0496C21.6101 9.57615 21.6136 9.09922 21.4674 8.6188C21.3211 8.13838 21.0461 7.75196 20.6423 7.45953C20.2385 7.1671 19.7859 7.01393 19.2846 7H19.2428C18.7415 7.01393 18.2924 7.1671 17.8956 7.45953C17.4987 7.75196 17.2237 8.13838 17.0705 8.6188C16.9173 9.09922 16.9208 9.57615 17.0809 10.0496C17.2411 10.5231 17.5231 10.906 17.9269 11.1984C17.9408 11.2124 17.9443 11.2263 17.9373 11.2402C17.9304 11.2541 17.9199 11.2681 17.906 11.282C17.6832 11.3377 17.3768 11.6092 16.9869 12.0966C16.7641 12.3612 16.4787 12.7511 16.1305 13.2663L15.9217 13.5379C15.6849 13.8721 15.3995 14.3316 15.0653 14.9164C14.7311 14.3316 14.4456 13.8721 14.2089 13.5379L14 13.2663C13.6379 12.7511 13.3525 12.3612 13.1436 12.0966C12.7537 11.6092 12.4473 11.3377 12.2245 11.282C12.1967 11.2681 12.1828 11.2541 12.1828 11.2402C12.1828 11.2263 12.1897 11.2124 12.2037 11.1984C12.6075 10.906 12.8895 10.5231 13.0496 10.0496C13.2097 9.57615 13.2132 9.09922 13.0601 8.6188C12.9069 8.13838 12.6319 7.75196 12.235 7.45953C11.8381 7.1671 11.389 7.01393 10.8877 7H10.846C10.3446 7.01393 9.89208 7.1671 9.48825 7.45953C9.08442 7.75196 8.8094 8.13838 8.66319 8.6188C8.51697 9.09922 8.52045 9.57615 8.67363 10.0496C8.82681 10.5231 9.10531 10.906 9.50914 11.1984C9.53699 11.2124 9.54743 11.2263 9.54047 11.2402C9.53351 11.2541 9.52306 11.2681 9.50914 11.282C9.28634 11.3377 8.97998 11.6092 8.59008 12.0966C8.36728 12.3612 8.07485 12.7511 7.71279 13.2663L7.5248 13.5379C7.27415 13.886 6.97476 14.3664 6.62663 14.9791L6.1671 15.7937C6.02785 16.0165 5.97563 16.2324 6.01044 16.4413C6.04526 16.6501 6.15666 16.8138 6.34465 16.9321C6.53264 17.0505 6.73107 17.054 6.93995 16.9426C7.12097 16.8451 7.28808 16.6989 7.44125 16.5039L8.90339 14.4987V14.6658C8.90339 15.2646 8.86858 16.1558 8.79896 17.3394L8.25587 21.5587C8.24195 21.6284 8.20714 21.6632 8.15144 21.6632C7.84508 21.7328 7.61532 21.8372 7.46214 21.9765C7.35074 22.0879 7.28111 22.2272 7.25326 22.3943C7.22541 22.5614 7.24978 22.7006 7.32637 22.812C7.40296 22.9234 7.51784 22.9791 7.67102 22.9791L9.38381 23C9.50914 23 9.62054 22.9547 9.71802 22.8642C9.81549 22.7737 9.87119 22.6658 9.88512 22.5405L10.4491 17.8198C10.463 17.7084 10.5083 17.6179 10.5849 17.5483C10.6614 17.4787 10.7554 17.4439 10.8668 17.4439C10.9782 17.4439 11.0722 17.4787 11.1488 17.5483C11.2254 17.6179 11.2707 17.7084 11.2846 17.8198L11.8486 22.5405C11.8625 22.6658 11.9147 22.7737 12.0052 22.8642C12.0957 22.9547 12.2106 23 12.3499 23L14.0627 22.9791C14.2019 22.9791 14.3098 22.9234 14.3864 22.812C14.463 22.7006 14.4909 22.5614 14.47 22.3943C14.4491 22.2272 14.376 22.0879 14.2507 21.9765C14.1114 21.8372 13.8886 21.7328 13.5822 21.6632C13.5265 21.6632 13.4917 21.6284 13.4778 21.5587L12.9347 17.3394C12.8651 16.1558 12.8303 15.2646 12.8303 14.6658V14.4987L14.2924 16.5039C14.3899 16.6292 14.4943 16.7337 14.6057 16.8172C14.6475 16.859 14.6893 16.8938 14.7311 16.9217C14.8285 16.9913 14.9365 17.0261 15.0548 17.0261C15.1732 17.0261 15.2881 16.9913 15.3995 16.9217C15.4413 16.8938 15.483 16.859 15.5248 16.8172C15.6362 16.7337 15.7406 16.6292 15.8381 16.5039L17.3003 14.4987V14.6658C17.3003 15.2646 17.2654 16.1558 17.1958 17.3394L16.6527 21.5587C16.6388 21.6284 16.604 21.6632 16.5483 21.6632C16.2419 21.7328 16.0191 21.8372 15.8799 21.9765C15.7546 22.0879 15.6815 22.2272 15.6606 22.3943C15.6397 22.5614 15.6641 22.7006 15.7337 22.812C15.8033 22.9234 15.9147 22.9791 16.0679 22.9791L17.7807 23C17.906 23 18.0174 22.9547 18.1149 22.8642C18.2124 22.7737 18.2681 22.6658 18.282 22.5405L18.846 17.8198C18.8599 17.7084 18.9051 17.6179 18.9817 17.5483C19.0583 17.4787 19.1523 17.4439 19.2637 17.4439C19.3751 17.4439 19.4691 17.4787 19.5457 17.5483C19.6223 17.6179 19.6675 17.7084 19.6815 17.8198L20.2454 22.5405C20.2594 22.6658 20.3151 22.7737 20.4125 22.8642C20.51 22.9547 20.6214 23 20.7467 23L22.4595 22.9791C22.6127 22.9791 22.7276 22.9234 22.8042 22.812C22.8808 22.7006 22.9051 22.5614 22.8773 22.3943C22.8494 22.2272 22.7798 22.0879 22.6684 21.9765C22.5152 21.8372 22.2855 21.7328 21.9791 21.6632C21.9234 21.6632 21.8886 21.6284 21.8747 21.5587L21.3316 17.3394C21.262 16.1558 21.2272 15.2646 21.2272 14.6658V14.4987L22.6893 16.5039C22.8425 16.6989 23.0096 16.8451 23.1906 16.9426C23.3995 17.054 23.5979 17.0505 23.7859 16.9321C23.9739 16.8138 24.0853 16.6501 24.1201 16.4413C24.1549 16.2324 24.1027 16.0165 23.9634 15.7937Z" fill="#979797"/>
</svg>
