<svg width="16" height="22" viewBox="0 0 16 22" fill="none" xmlns="http://www.w3.org/2000/svg">
<path d="M13 1H3C1.89543 1 1 1.89543 1 3V19C1 20.1046 1.89543 21 3 21H13C14.1046 21 15 20.1046 15 19V3C15 1.89543 14.1046 1 13 1Z" stroke="black" stroke-linecap="round" stroke-linejoin="round"/>
<path d="M8 17H8.01" stroke="black" stroke-width="2" stroke-linecap="round" stroke-linejoin="round"/>
<path d="M6.75 6.75V7.5C6.75 7.63807 6.63807 7.75 6.5 7.75H5.75C5.61193 7.75 5.5 7.63807 5.5 7.5V6.75C5.5 6.61193 5.61193 6.5 5.75 6.5H6.5C6.63807 6.5 6.75 6.61193 6.75 6.75Z" stroke="black" stroke-width="0.5" stroke-linecap="round" stroke-linejoin="round"/>
<path d="M5.5 8.99998H6.75" stroke="black" stroke-width="0.5" stroke-linecap="round" stroke-linejoin="round"/>
<path d="M9.25 8.99998V10.25" stroke="black" stroke-width="0.5" stroke-linecap="round" stroke-linejoin="round"/>
<path d="M8 11.5H9.25" stroke="black" stroke-width="0.5" stroke-linecap="round" stroke-linejoin="round"/>
<path d="M8 9.00523L8.00472 8.99998" stroke="black" stroke-width="0.5" stroke-linecap="round" stroke-linejoin="round"/>
<path d="M10.5 9.00523L10.5047 8.99998" stroke="black" stroke-width="0.5" stroke-linecap="round" stroke-linejoin="round"/>
<path d="M8 10.2552L8.00472 10.25" stroke="black" stroke-width="0.5" stroke-linecap="round" stroke-linejoin="round"/>
<path d="M10.5 10.2552L10.5047 10.25" stroke="black" stroke-width="0.5" stroke-linecap="round" stroke-linejoin="round"/>
<path d="M10.5 11.5052L10.5047 11.5" stroke="black" stroke-width="0.5" stroke-linecap="round" stroke-linejoin="round"/>
<path d="M8 7.75526L8.00472 7.75002" stroke="black" stroke-width="0.5" stroke-linecap="round" stroke-linejoin="round"/>
<path d="M8 6.50525L8.00472 6.5" stroke="black" stroke-width="0.5" stroke-linecap="round" stroke-linejoin="round"/>
<path d="M6.75 10.5V11.25C6.75 11.3881 6.63807 11.5 6.5 11.5H5.75C5.61193 11.5 5.5 11.3881 5.5 11.25V10.5C5.5 10.3619 5.61193 10.25 5.75 10.25H6.5C6.63807 10.25 6.75 10.3619 6.75 10.5Z" stroke="black" stroke-width="0.5" stroke-linecap="round" stroke-linejoin="round"/>
<path d="M10.5 6.75V7.5C10.5 7.63807 10.3881 7.75 10.25 7.75H9.5C9.36192 7.75 9.25 7.63807 9.25 7.5V6.75C9.25 6.61193 9.36192 6.5 9.5 6.5H10.25C10.3881 6.5 10.5 6.61193 10.5 6.75Z" stroke="black" stroke-width="0.5" stroke-linecap="round" stroke-linejoin="round"/>
<path d="M10.5 5.24998H11.75V6.49998" stroke="black" stroke-width="0.5" stroke-linecap="round" stroke-linejoin="round"/>
<path d="M10.5 12.75H11.75V11.5" stroke="black" stroke-width="0.5" stroke-linecap="round" stroke-linejoin="round"/>
<path d="M5.5 5.24998H4.25V6.49998" stroke="black" stroke-width="0.5" stroke-linecap="round" stroke-linejoin="round"/>
<path d="M5.5 12.75H4.25V11.5" stroke="black" stroke-width="0.5" stroke-linecap="round" stroke-linejoin="round"/>
</svg>
