<svg width="20" height="21" viewBox="0 0 20 21" fill="none" xmlns="http://www.w3.org/2000/svg">
<path d="M18.0002 6.53115C17.9055 6.81293 17.7377 7.02088 17.4283 7.06297C17.0058 7.12046 16.6711 6.81764 16.6655 6.37315C16.6595 5.88656 16.6648 5.39997 16.6636 4.9137C16.6617 4.27539 16.3023 3.91697 15.6642 3.91634C15.1802 3.91603 14.6961 3.92011 14.2123 3.91446C13.8652 3.91037 13.5964 3.68954 13.5364 3.37541C13.4736 3.04715 13.6423 2.74872 13.9683 2.61082C13.9905 2.6014 14.0105 2.58601 14.0314 2.57344C14.698 2.57344 15.3648 2.57344 16.0314 2.57344C16.0598 2.58349 16.0877 2.597 16.117 2.60265C17.0436 2.78548 17.6433 3.333 17.9214 4.2377C17.9533 4.34073 17.9742 4.44753 18.0002 4.55245V6.53147V6.53115Z" fill="black"/>
<path d="M14.0627 18.6565C13.7527 18.5485 13.539 18.3569 13.5287 18.0047C13.5168 17.6058 13.8115 17.3177 14.2334 17.3146C14.7118 17.3108 15.1902 17.3143 15.6687 17.3136C16.3024 17.313 16.6634 16.9502 16.6643 16.3128C16.6649 15.8265 16.6612 15.3406 16.6655 14.8543C16.6687 14.5257 16.8474 14.2807 17.1368 14.189C17.4071 14.1035 17.7074 14.1994 17.8699 14.434C17.9252 14.5138 17.9577 14.6099 18.0005 14.6985V16.6775C17.9905 16.7061 17.9768 16.7338 17.9712 16.7633C17.8018 17.6491 17.293 18.2435 16.4487 18.5453C16.3137 18.5937 16.1709 18.6201 16.0315 18.6565H14.0627Z" fill="black"/>
<path d="M5.93719 2.57312C6.24719 2.68118 6.46094 2.87217 6.47094 3.22525C6.48219 3.61886 6.19406 3.90911 5.78156 3.91445C5.29812 3.92073 4.81437 3.91602 4.33094 3.91634C3.69656 3.91665 3.33656 4.27884 3.33594 4.91652C3.33563 5.40248 3.33938 5.88875 3.33438 6.37471C3.33094 6.70455 3.1525 6.94831 2.86312 7.04004C2.59781 7.12422 2.30594 7.03564 2.14 6.80758C2.08 6.72528 2.04594 6.62381 2 6.53115C2 5.87148 2 5.2118 2 4.55213C2.00969 4.52355 2.02313 4.49559 2.02875 4.46606C2.21188 3.52776 2.76281 2.92463 3.66969 2.64663C3.7675 2.61647 3.86875 2.59731 3.96844 2.57312H5.93719Z" fill="black"/>
<path d="M2 14.6985C2.10688 14.3866 2.29719 14.1723 2.64781 14.162C3.04562 14.15 3.33094 14.4434 3.33469 14.8697C3.33906 15.356 3.33531 15.8419 3.33625 16.3282C3.3375 16.9455 3.70062 17.3114 4.31531 17.3133C4.80406 17.3149 5.29312 17.3108 5.78187 17.3149C6.10938 17.3177 6.3525 17.4968 6.44375 17.7879C6.5275 18.0546 6.43937 18.3487 6.2125 18.5152C6.13031 18.5755 6.02969 18.61 5.93719 18.6565H3.96875C3.94031 18.6465 3.91281 18.633 3.88344 18.627C2.95 18.4432 2.35031 17.8888 2.07281 16.9778C2.04312 16.8795 2.02406 16.7777 2 16.6775C2 16.0178 2 15.3582 2 14.6985Z" fill="black"/>
<path d="M9.93773 15.6648C8.69366 15.6409 7.55773 15.1974 6.60304 14.2996C6.26023 13.9773 6.22179 13.5724 6.5046 13.278C6.78585 12.9856 7.1796 13.0029 7.51398 13.3208C8.09148 13.8702 8.77304 14.2035 9.56398 14.2946C10.679 14.4227 11.6505 14.0967 12.4724 13.3311C12.6571 13.159 12.8518 13.0333 13.1124 13.0764C13.3818 13.1207 13.569 13.2771 13.6515 13.5397C13.7362 13.8102 13.6593 14.0448 13.4599 14.2402C12.9071 14.7824 12.2652 15.1776 11.5309 15.4188C11.0324 15.5825 10.5199 15.6585 9.93773 15.6645V15.6648Z" fill="black"/>
<path d="M9.33734 8.83026C9.33734 8.31226 9.33141 7.79426 9.33953 7.27626C9.34484 6.93795 9.59516 6.68036 9.93484 6.63827C10.2423 6.60026 10.5486 6.80633 10.6364 7.11668C10.6561 7.18579 10.6627 7.26087 10.6627 7.33343C10.6636 8.26483 10.6645 9.19622 10.6608 10.1276C10.6592 10.5388 10.5989 10.9409 10.4345 11.3213C10.1623 11.9502 9.58047 12.3052 8.90016 12.2612C8.53641 12.2376 8.26891 11.954 8.26953 11.5924C8.27016 11.2321 8.54297 10.9459 8.90359 10.9271C9.15453 10.9139 9.23734 10.8536 9.27922 10.5997C9.31328 10.3943 9.32859 10.1845 9.33328 9.97589C9.34141 9.59422 9.33578 9.21192 9.33578 8.82994C9.33641 8.82994 9.33703 8.82994 9.33766 8.82994L9.33734 8.83026Z" fill="black"/>
<path d="M7.59864 7.84044C7.59395 8.22462 7.48895 8.56262 7.23895 8.84439C6.84676 9.287 6.24207 9.2914 5.8402 8.85916C5.34207 8.32325 5.34395 7.35448 5.84395 6.82109C6.24239 6.39607 6.82239 6.39293 7.21989 6.81889C7.48957 7.10789 7.59645 7.46097 7.59864 7.84044Z" fill="black"/>
<path d="M12.4014 7.81436C12.4079 7.44934 12.5157 7.10223 12.7814 6.81731C13.1723 6.39795 13.7498 6.39701 14.1467 6.81103C14.6598 7.34662 14.6604 8.33487 14.1476 8.87235C13.7557 9.28323 13.1679 9.28291 12.7807 8.86575C12.512 8.57644 12.4029 8.22398 12.4014 7.81436Z" fill="black"/>
</svg>
