<svg width="20" height="20" viewBox="0 0 20 20" fill="none" xmlns="http://www.w3.org/2000/svg">
<rect x="0.6" y="2.59998" width="18.8" height="14.8" rx="1.4" stroke="black" stroke-width="1.2"/>
<path d="M0.476562 6.47462H19.4239" stroke="black" stroke-width="1.2"/>
<path d="M5.78925 11.5785C6.56439 11.5785 7.19276 10.9501 7.19276 10.175C7.19276 9.39986 6.56439 8.77148 5.78925 8.77148C5.01411 8.77148 4.38574 9.39986 4.38574 10.175C4.38574 10.9501 5.01411 11.5785 5.78925 11.5785Z" fill="black"/>
<path d="M5.78944 12.2812C3.64909 12.2812 2.98242 13.6848 2.98242 13.6848V14.3865H8.59646V13.6848C8.59646 13.6848 7.92979 12.2812 5.78944 12.2812Z" fill="black"/>
<path d="M11.2002 14H16.8002M11.2002 12H15.8002" stroke="black" stroke-width="1.2"/>
<path d="M11.2002 10H14.4002" stroke="black" stroke-width="1.2"/>
</svg>
