<svg width="16" height="16" viewBox="0 0 16 16" fill="none" xmlns="http://www.w3.org/2000/svg">
    <circle cx="8" cy="8" r="8" fill="#8299FF"/>
    <path d="M7.11 10.669h-.002a.525.525 0 0 1-.383-.168l-1.75-1.875-.008-.007a.525.525 0 0 1 .05-.716M7.11 10.67 5.017 7.903M7.11 10.67a.525.525 0 0 0 .383-.168l3.496-3.746-3.879 3.914zM5.017 7.903a.525.525 0 0 1 .717.001m-.717 0h.717m.007.007 1.368 1.462L10.22 6.04a.525.525 0 0 1 .762-.05L5.74 7.912zm0 0-.007-.007m.007.007-.007-.007" fill="#fff" stroke="#fff" stroke-width=".3"/>
</svg>
