<svg width="13" height="13" viewBox="0 0 13 13" fill="none" xmlns="http://www.w3.org/2000/svg">
<g id="edit-2" clip-path="url(#clip0_930_33281)">
<path id="Vector" d="M9.20825 1.625C9.35052 1.48274 9.51941 1.36988 9.70529 1.29289C9.89117 1.2159 10.0904 1.17627 10.2916 1.17627C10.4928 1.17627 10.692 1.2159 10.8779 1.29289C11.0638 1.36988 11.2327 1.48274 11.3749 1.625C11.5172 1.76727 11.63 1.93616 11.707 2.12204C11.784 2.30792 11.8236 2.50714 11.8236 2.70833C11.8236 2.90953 11.784 3.10875 11.707 3.29463C11.63 3.48051 11.5172 3.6494 11.3749 3.79167L4.06242 11.1042L1.08325 11.9167L1.89575 8.9375L9.20825 1.625Z" stroke="white" stroke-width="2" stroke-linecap="round" stroke-linejoin="round"/>
</g>
<defs>
<clipPath id="clip0_930_33281">
<rect width="13" height="13" fill="white"/>
</clipPath>
</defs>
</svg>
