<svg xmlns="http://www.w3.org/2000/svg" width="21" height="19" viewBox="0 0 21 19" fill="none">
    <path d="M19.3254 3.16705V7.91763H14.284" stroke="black" stroke-linecap="round" stroke-linejoin="round"/>
    <path d="M0.84024 15.8352V11.0847H5.88165" stroke="black" stroke-linecap="round" stroke-linejoin="round"/>
    <path d="M2.94923 7.12587C3.37537 5.9911 4.09962 4.97655 5.05441 4.17688C6.00919 3.37722 7.16339 2.81849 8.40931 2.55285C9.65523 2.28721 10.9523 2.32331 12.1794 2.65777C13.4065 2.99224 14.5237 3.61417 15.4267 4.46555L19.3254 7.91763M0.84024 11.0847L4.73893 14.5368C5.64197 15.3881 6.75916 16.0101 7.98627 16.3445C9.21338 16.679 10.5104 16.7151 11.7563 16.4495C13.0022 16.1838 14.1564 15.6251 15.1112 14.8254C16.066 14.0258 16.7903 13.0112 17.2164 11.8764" stroke="black" stroke-linecap="round" stroke-linejoin="round"/>
</svg>