<svg width="17" height="16" viewBox="0 0 17 16" fill="none" xmlns="http://www.w3.org/2000/svg">
<path d="M12.1528 10.3477L16.477 14.68C16.6074 14.8344 16.6747 15.0323 16.6655 15.2342C16.6563 15.4361 16.5713 15.6271 16.4274 15.769C16.2835 15.9109 16.0913 15.9933 15.8893 15.9996C15.6873 16.0059 15.4903 15.9358 15.3378 15.8032L11.0217 11.4869C9.73222 12.4886 8.10946 12.9612 6.48383 12.8084C4.85819 12.6556 3.35191 11.8889 2.27169 10.6645C1.19146 9.44002 0.618519 7.84988 0.669516 6.21781C0.720513 4.58575 1.39162 3.03448 2.54618 1.87987C3.70074 0.725264 5.25195 0.0541335 6.88396 0.00313429C8.51596 -0.047865 10.106 0.525101 11.3304 1.60537C12.5548 2.68564 13.3215 4.19197 13.4743 5.81767C13.6271 7.44337 13.1545 9.06618 12.1528 10.3557V10.3477ZM7.08261 11.2302C8.35923 11.2302 9.58357 10.723 10.4863 9.82028C11.389 8.91753 11.8961 7.69315 11.8961 6.41647C11.8961 5.1398 11.389 3.91541 10.4863 3.01267C9.58357 2.10992 8.35923 1.60277 7.08261 1.60277C5.80598 1.60277 4.58164 2.10992 3.67893 3.01267C2.77622 3.91541 2.26909 5.1398 2.26909 6.41647C2.26909 7.69315 2.77622 8.91753 3.67893 9.82028C4.58164 10.723 5.80598 11.2302 7.08261 11.2302Z" fill="black"/>
</svg>
