<svg width="20" height="20" viewBox="0 0 20 20" fill="none" xmlns="http://www.w3.org/2000/svg">
<circle cx="10" cy="10" r="10" fill="#2F3A6D"/>
<g clip-path="url(#clip0_337_1881)">
<path d="M5.39994 6.60001L7.49994 8.00001L9.59294 5.07001C9.63919 5.0052 9.70026 4.95236 9.77105 4.91591C9.84184 4.87946 9.92032 4.86044 9.99994 4.86044C10.0796 4.86044 10.158 4.87946 10.2288 4.91591C10.2996 4.95236 10.3607 5.0052 10.4069 5.07001L12.4999 8.00001L14.5999 6.60001C14.6794 6.54713 14.7724 6.51811 14.8678 6.51638C14.9633 6.51464 15.0572 6.54027 15.1386 6.59022C15.2199 6.64017 15.2852 6.71237 15.3269 6.79828C15.3685 6.88418 15.3847 6.98021 15.3734 7.07501L14.5519 14.0585C14.5376 14.1801 14.4791 14.2923 14.3876 14.3737C14.2961 14.455 14.1779 14.5 14.0554 14.5H5.94444C5.82198 14.5 5.70377 14.455 5.61226 14.3737C5.52074 14.2923 5.46227 14.1801 5.44794 14.0585L4.62644 7.07451C4.61534 6.97975 4.63159 6.8838 4.67325 6.79797C4.71492 6.71214 4.78027 6.64003 4.8616 6.59014C4.94292 6.54025 5.03682 6.51467 5.13221 6.51642C5.2276 6.51817 5.3205 6.54718 5.39994 6.60001ZM9.99994 11.5C10.2652 11.5 10.5195 11.3947 10.707 11.2071C10.8946 11.0196 10.9999 10.7652 10.9999 10.5C10.9999 10.2348 10.8946 9.98044 10.707 9.7929C10.5195 9.60537 10.2652 9.50001 9.99994 9.50001C9.73473 9.50001 9.48037 9.60537 9.29284 9.7929C9.1053 9.98044 8.99994 10.2348 8.99994 10.5C8.99994 10.7652 9.1053 11.0196 9.29284 11.2071C9.48037 11.3947 9.73473 11.5 9.99994 11.5Z" fill="#FFF740"/>
</g>
<defs>
<clipPath id="clip0_337_1881">
<rect width="12" height="12" fill="white" transform="translate(4 4)"/>
</clipPath>
</defs>
</svg>
