<svg width="16" height="16" viewBox="0 0 16 16" fill="none" xmlns="http://www.w3.org/2000/svg">
<g id="sc_btn_t_ok">
<circle id="Ellipse 9" cx="8" cy="8" r="8" fill="#8299FF"/>
<path id="Vector" d="M7.1086 9.37291L5.74075 7.91132L5.74099 7.91109L5.73372 7.90429C5.6366 7.81341 5.50861 7.76278 5.3756 7.76262C5.24259 7.76247 5.11448 7.81281 5.01716 7.90347C4.91983 7.99413 4.86055 8.11835 4.85128 8.25103C4.84201 8.38372 4.88345 8.51498 4.96722 8.61829L4.96693 8.61852L4.97411 8.6262L6.72499 10.5008C6.72506 10.5009 6.72513 10.501 6.7252 10.501C6.77411 10.5537 6.83332 10.5958 6.89916 10.6246C6.96509 10.6535 7.03626 10.6686 7.10824 10.6688L7.10921 10.6688C7.1812 10.6686 7.25237 10.6535 7.3183 10.6246C7.38416 10.5958 7.44339 10.5537 7.49231 10.501C7.49236 10.5009 7.49241 10.5009 7.49246 10.5008L10.9877 6.75455C11.0384 6.70611 11.0789 6.64801 11.1068 6.58365C11.1354 6.5176 11.1501 6.44638 11.15 6.3744C11.1499 6.30242 11.135 6.23123 11.1063 6.16525C11.0775 6.09927 11.0355 6.03991 10.9828 5.99085C10.9302 5.94179 10.868 5.90408 10.8001 5.88007C10.7323 5.85606 10.6602 5.84626 10.5884 5.85128C10.5166 5.85629 10.4466 5.87602 10.3828 5.90923C10.3206 5.94157 10.2655 5.98602 10.2208 6.03994L7.1086 9.37291Z" fill="white" stroke="white" stroke-width="0.3"/>
</g>
</svg>
